<svg width="22" height="25" viewBox="0 0 22 25" fill="none" xmlns="http://www.w3.org/2000/svg">
<path fill-rule="evenodd" clip-rule="evenodd" d="M14.9087 0.649081C13.7067 0.212038 12.3624 0 10.9641 0C8.62287 0 6.43259 0.594526 4.80878 1.84446C3.16159 3.11238 2.15542 5.01333 2.15542 7.46644C2.15542 9.91533 1.25728 12.7206 0.293008 15.0109C-0.698121 17.365 0.927814 20.302 3.62506 20.302H6.18228V20.8893C6.18228 22.2304 6.73773 23.2924 7.6562 23.9994C8.5513 24.6884 9.73487 25 10.9642 25C12.1935 25 13.377 24.6884 14.2721 23.9994C15.1906 23.2924 15.746 22.2304 15.746 20.8893V20.302H18.3032C21.0005 20.302 22.6264 17.365 21.6353 15.0109C21.4955 14.6789 21.3571 14.3361 21.2226 13.9851C20.7256 14.0995 20.2099 14.1649 19.6808 14.1759C19.8639 14.6705 20.0539 15.1464 20.2435 15.5969C20.8718 17.0892 19.7794 18.7919 18.3032 18.7919H14.991H6.93732H3.62506C2.14891 18.7919 1.05647 17.0892 1.68475 15.5969C2.67085 13.2548 3.66549 10.2234 3.66549 7.46644C3.66549 5.47163 4.4622 4.01687 5.72988 3.04107C7.02093 2.04728 8.85749 1.51007 10.9641 1.51007C11.9353 1.51007 12.8491 1.62423 13.6784 1.84467C14.0419 1.40121 14.4548 0.999864 14.9087 0.649081ZM7.69235 20.302H14.236V20.8893C14.236 21.7721 13.89 22.3879 13.351 22.8028C12.7887 23.2357 11.9588 23.4899 10.9642 23.4899C9.96949 23.4899 9.13964 23.2357 8.5773 22.8028C8.03834 22.3879 7.69235 21.7721 7.69235 20.8893V20.302Z" fill="#FF4201"/>
</svg>
