<svg width="25" height="24" viewBox="0 0 25 24" fill="none" xmlns="http://www.w3.org/2000/svg">
<g opacity="0.5" clip-path="url(#clip0_15_359)">
<path d="M3.20957 5.22222H18.6939C20.2667 5.22222 21.3774 6.70822 20.88 8.14717L18.9597 13.7027C18.6461 14.6102 17.7655 15.2222 16.7737 15.2222H4.69092M3.20957 5.22222L3.16303 4.90795C3.00085 3.81318 2.02862 3 0.881872 3H0M3.20957 5.22222L4.69092 15.2222M4.69092 15.2222L4.90208 16.6476C5.06425 17.7424 6.03649 18.5556 7.18323 18.5556H17.2824M17.2824 18.5556C16.0097 18.5556 14.9781 19.5505 14.9781 20.7778C14.9781 22.0051 16.0097 23 17.2824 23C18.555 23 19.5867 22.0051 19.5867 20.7778C19.5867 19.5505 18.555 18.5556 17.2824 18.5556ZM10.3694 20.7778C10.3694 22.0051 9.33774 23 8.0651 23C6.79247 23 5.76079 22.0051 5.76079 20.7778C5.76079 19.5505 6.79247 18.5556 8.0651 18.5556C9.33774 18.5556 10.3694 19.5505 10.3694 20.7778Z" stroke="#7D8189" stroke-width="2.18293" stroke-linecap="round" stroke-linejoin="round"/>
</g>
<defs>
<clipPath id="clip0_15_359">
<rect width="25" height="24" fill="white"/>
</clipPath>
</defs>
</svg>
