<svg width="24" height="24" viewBox="0 0 24 24" fill="none" xmlns="http://www.w3.org/2000/svg">
<path d="M4.78571 4.99988H18.2251C19.5903 4.99988 20.5542 6.33727 20.1225 7.63233L18.4558 12.6323C18.1836 13.449 17.4193 13.9999 16.5585 13.9999H6.07142M4.78571 4.99988L4.74531 4.71703C4.60455 3.73174 3.76071 2.99988 2.76541 2.99988H2M4.78571 4.99988L6.07142 13.9999M6.07142 13.9999L6.25469 15.2827C6.39545 16.268 7.23929 16.9999 8.23459 16.9999H17M17 16.9999C15.8954 16.9999 15 17.8953 15 18.9999C15 20.1044 15.8954 20.9999 17 20.9999C18.1046 20.9999 19 20.1044 19 18.9999C19 17.8953 18.1046 16.9999 17 16.9999ZM11 18.9999C11 20.1044 10.1046 20.9999 9 20.9999C7.89543 20.9999 7 20.1044 7 18.9999C7 17.8953 7.89543 16.9999 9 16.9999C10.1046 16.9999 11 17.8953 11 18.9999Z" stroke="white" stroke-width="1.71774" stroke-linecap="round" stroke-linejoin="round"/>
</svg>
