<svg width="25" height="22" viewBox="0 0 25 22" fill="none" xmlns="http://www.w3.org/2000/svg">
<path d="M10.1708 4.85392C10.9025 4.68164 11.6794 4.58333 12.4999 4.58333C16.4139 4.58333 19.3374 6.82037 21.0756 8.65273C22.3799 10.0277 22.3798 11.9725 21.0754 13.3475C20.8755 13.5582 20.66 13.7742 20.4291 13.9915M13.0208 8.28802C14.3294 8.48122 15.3622 9.3901 15.5817 10.5417M3.12495 2.75L21.8749 19.25M11.9791 13.712C10.8498 13.5452 9.92582 12.8455 9.55278 11.9167M4.53031 8.0467C4.31467 8.25113 4.11267 8.45418 3.92455 8.65248C2.62018 10.0275 2.61998 11.9723 3.92432 13.3473C5.66249 15.1796 8.58602 17.4167 12.5 17.4167C13.3355 17.4167 14.1258 17.3147 14.8692 17.1366" stroke="#C9C5C4" stroke-width="1.5" stroke-linecap="round" stroke-linejoin="round"/>
</svg>
