<svg width="44" height="48" viewBox="0 0 44 48" fill="none" xmlns="http://www.w3.org/2000/svg">
<path d="M20.5085 26.7964L32.5907 20.0388L32.6022 20.0349L35.7575 18.2732C36.0559 18.1053 36.4307 18.2186 36.5951 18.5271C37.8382 20.8435 38.6031 23.3629 38.8747 25.937C39.1462 28.4916 38.932 31.1009 38.2206 33.6203C38.213 33.6594 38.2015 33.6945 38.19 33.7336C36.6678 38.9834 33.2179 43.1122 28.854 45.5496C24.4938 47.987 19.2272 48.733 14.083 47.2097C14.0448 47.2019 14.0065 47.1901 13.9721 47.1745C8.8317 45.6199 4.789 42.0966 2.40239 37.6397C0.00430881 33.1672 -0.722383 27.769 0.788371 22.4918V22.4879C2.29912 17.2108 5.7643 13.0625 10.1397 10.6173C14.5152 8.17205 19.8047 7.42989 24.9681 8.9728C25.297 9.07045 25.4844 9.4181 25.3888 9.75402L20.5085 26.7964Z" fill="#FB8F2D"/>
<path d="M30.7817 27.0227C30.4604 26.6985 30.0206 26.4954 29.5349 26.4954C29.0491 26.4954 28.6055 26.6985 28.288 27.0227C27.9667 27.3508 27.7717 27.8001 27.7717 28.2961C27.7717 28.7922 27.9706 29.2453 28.288 29.5695C28.6055 29.8976 29.0491 30.0968 29.5349 30.0968C30.0206 30.0968 30.4643 29.8937 30.7817 29.5695C31.103 29.2453 31.298 28.7922 31.298 28.2961C31.2942 27.8001 31.0992 27.3508 30.7817 27.0227Z" fill="black"/>
<path d="M33.5928 20.9682L19.8201 28.671C19.7436 28.714 19.6556 28.7413 19.5714 28.7531H19.5638H19.5562H19.5447H19.537H19.5294H19.5217H19.5141H19.5064H19.4988H19.4911H19.4835H19.4758H19.4682H19.4605H19.4529H19.4452H19.4299C19.3917 28.7492 19.3534 28.7413 19.3152 28.7296C18.9633 28.6242 18.7606 28.2531 18.8639 27.8898L23.2776 12.4919C19.3152 11.4881 15.2993 12.1209 11.9527 13.9958C8.42247 15.9684 5.63044 19.3159 4.41419 23.5697C3.19412 27.8273 3.78312 32.1826 5.71076 35.7919C7.64223 39.3972 10.92 42.2487 15.0851 43.4908C19.254 44.7369 23.5224 44.1353 27.0526 42.1666C30.5827 40.1941 33.3748 36.8465 34.591 32.5928C35.1762 30.5499 35.3521 28.425 35.1341 26.3469C34.9314 24.4876 34.4151 22.6674 33.5928 20.9682Z" fill="#FFE278"/>
<path d="M33.7152 20.8475C34.5605 22.5779 35.0883 24.4372 35.2872 26.3277C35.509 28.4253 35.333 30.5658 34.7402 32.6322C33.5087 36.9328 30.686 40.3194 27.1176 42.3115C23.553 44.3036 19.2426 44.9091 15.0354 43.6513C10.8244 42.3935 7.5084 39.5108 5.55781 35.8664C3.60721 32.2259 3.01439 27.8238 4.24594 23.527C5.47749 19.2264 8.30011 15.8398 11.8686 13.8477C15.2687 11.9493 19.342 11.3087 23.3579 12.3439L24.0234 10.0158C19.3764 8.79711 14.6606 9.52756 10.7326 11.7189C6.63255 14.0157 3.38921 17.9022 1.97407 22.8396C0.558933 27.7847 1.23973 32.8431 3.48482 37.0305C5.72992 41.2139 9.53549 44.5263 14.3699 45.9715C19.212 47.4168 24.1611 46.7215 28.2612 44.4325C32.3574 42.1435 35.6008 38.2531 37.0159 33.3157C37.6967 30.9447 37.8994 28.48 37.6432 26.066C37.4099 23.8591 36.7903 21.6951 35.7958 19.6834L33.7152 20.8475Z" fill="#FF9F34"/>
<path d="M32.1008 0.0237816C34.6366 0.781566 36.9047 2.0198 38.8399 3.60959C40.8517 5.26187 42.504 7.29695 43.7279 9.57421C43.8924 9.87889 43.7814 10.2617 43.4793 10.4296L26.926 19.6832C26.6277 19.8512 26.2529 19.7379 26.0884 19.4293C26.0081 19.277 25.9928 19.1051 26.0387 18.9528L31.3397 0.457359C31.4277 0.121434 31.7719 -0.0699649 32.1008 0.0237816Z" fill="#FB8F2D"/>
<path d="M40.152 11.1016C39.0543 9.47275 37.7233 8.00406 36.1781 6.75801C34.7362 5.59399 33.1145 4.62137 31.3399 3.89093L27.1977 18.3396L40.152 11.1016Z" fill="#FFE278"/>
<path d="M31.8447 3.16836C33.6538 3.8988 35.306 4.88314 36.7709 6.06669C38.339 7.33227 39.6891 8.83222 40.7945 10.4923L42.3397 9.62906C41.2305 7.71898 39.7886 6.0042 38.0675 4.59019C36.4037 3.22305 34.4799 2.13715 32.3457 1.41843L31.8447 3.16836Z" fill="#FF9F34"/>
<path d="M29.5308 25.3587C30.3263 25.3587 31.0454 25.6868 31.5655 26.2181C32.0857 26.7493 32.407 27.4837 32.407 28.2961C32.407 29.1086 32.0857 29.8429 31.5655 30.3742C31.0454 30.9054 30.3263 31.2335 29.5308 31.2335C28.7352 31.2335 28.0162 30.9054 27.496 30.3742C26.9759 29.8429 26.6546 29.1086 26.6546 28.2961C26.6546 27.4837 26.9759 26.7493 27.496 26.2181C28.0162 25.6908 28.7391 25.3587 29.5308 25.3587Z" fill="#D83636"/>
<path d="M10.2463 27.4915C11.5276 27.4915 12.5679 28.554 12.5679 29.8625C12.5679 31.171 11.5276 32.2335 10.2463 32.2335C8.96501 32.2335 7.92469 31.171 7.92469 29.8625C7.92469 28.554 8.96501 27.4915 10.2463 27.4915Z" fill="#D83636"/>
<path d="M12.6143 19.6638L15.5669 15.3124L18.6458 19.7927L12.6143 19.6638Z" fill="#F2433B"/>
<path d="M15.1306 39.5224C14.8284 39.5771 14.5416 39.374 14.488 39.0654C14.4345 38.7568 14.6334 38.4638 14.9355 38.4092C15.5131 38.3037 16.0103 38.2646 16.4769 38.374C16.9817 38.4912 17.4178 38.7685 17.8194 39.2841C17.8347 39.3037 17.85 39.3193 17.8653 39.3349C17.9953 39.4599 18.2095 39.4716 18.4351 39.4208C18.7411 39.3544 19.0471 39.1826 19.2766 38.999C19.3416 38.9482 19.399 38.8935 19.441 38.8466C20.2557 37.9717 21.2922 38.4717 22.1566 38.8935C22.4434 39.0341 22.539 39.4872 22.6155 39.3193C22.6193 39.3076 22.627 39.2958 22.6308 39.2841C22.715 39.0224 22.975 38.8545 23.2466 38.9013C23.5487 38.9521 23.7553 39.2412 23.7056 39.5536C23.675 39.7568 23.6291 39.8505 23.5602 39.9169C23.1586 40.6435 22.4778 40.3114 21.6823 39.9247C21.1468 39.663 20.5043 39.3544 20.2442 39.6357C20.1639 39.7255 20.0683 39.8114 19.965 39.8935C19.6208 40.1708 19.1465 40.4325 18.6684 40.538C18.11 40.663 17.5402 40.5927 17.0965 40.163C17.0429 40.1122 16.9932 40.0575 16.9473 39.995C16.7178 39.6982 16.4845 39.5458 16.2245 39.4833C15.9338 39.4091 15.5704 39.4404 15.1306 39.5224ZM15.9567 30.2962C15.9261 29.9837 16.1441 29.7064 16.4501 29.6712C16.7561 29.64 17.0276 29.8626 17.0621 30.1751C17.1768 31.2493 17.0659 32.1984 16.7331 33.0148C16.3927 33.8507 15.8267 34.5382 15.0312 35.0733C14.7749 35.2452 14.4307 35.1749 14.2624 34.9132C14.0941 34.6515 14.163 34.2999 14.4192 34.1281C15.0235 33.7179 15.4557 33.2023 15.7081 32.5773C15.9644 31.9367 16.0485 31.175 15.9567 30.2962ZM11.501 24.5659C11.1988 24.6206 10.912 24.4175 10.8546 24.1128C10.801 23.8042 10.9999 23.5113 11.3021 23.4527C11.6234 23.3902 11.9446 23.2847 12.243 23.1832C13.2374 22.8472 14.0329 22.5816 14.9355 23.5738C15.1803 23.8433 15.5743 23.855 16.0141 23.8628C16.3468 23.8706 16.7025 23.8784 17.0812 23.9644C17.3795 24.0308 17.5708 24.3316 17.5057 24.6401C17.4407 24.9448 17.1462 25.1401 16.8441 25.0737C16.5534 25.0073 16.2627 25.0034 15.9912 24.9956C15.2989 24.98 14.6831 24.9643 14.1209 24.3472C13.704 23.8863 13.2106 24.0542 12.591 24.2612C12.2697 24.3706 11.9179 24.4878 11.501 24.5659Z" fill="#75AA00"/>
<path d="M21.4836 36.171L24.5778 32.3821L27.2857 36.2101L21.4836 36.171Z" fill="#F2433B"/>
<path d="M33.7956 7.22665C35.0768 7.22665 36.1172 8.28911 36.1172 9.59766C36.1172 10.9062 35.0768 11.9687 33.7956 11.9687C32.5143 11.9687 31.474 10.9062 31.474 9.59766C31.474 8.28911 32.5143 7.22665 33.7956 7.22665Z" fill="#D83636"/>
<path d="M29.531 27.4603C29.7567 27.4603 29.9594 27.554 30.1085 27.7024C30.2577 27.8548 30.3457 28.0618 30.3457 28.2923C30.3457 28.5227 30.2539 28.7298 30.1085 28.8821C29.9594 29.0344 29.7567 29.1243 29.531 29.1243C29.3054 29.1243 29.1026 29.0305 28.9535 28.8821C28.8043 28.7298 28.7163 28.5227 28.7163 28.2923C28.7163 28.0618 28.8081 27.8548 28.9535 27.7024C29.0988 27.554 29.3054 27.4603 29.531 27.4603Z" fill="white"/>
<path d="M10.2467 29.0268C10.4724 29.0268 10.6751 29.1205 10.8242 29.2689C10.9734 29.4213 11.0614 29.6283 11.0614 29.8588C11.0614 30.0892 10.9696 30.2962 10.8242 30.4486C10.6751 30.6009 10.4724 30.6908 10.2467 30.6908C10.0211 30.6908 9.81835 30.597 9.66919 30.4486C9.52002 30.2962 9.43206 30.0892 9.43206 29.8588C9.43206 29.6283 9.52385 29.4213 9.66919 29.2689C9.81453 29.1205 10.0211 29.0268 10.2467 29.0268Z" fill="white"/>
</svg>
