<svg width="32" height="37" viewBox="0 0 32 37" fill="none" xmlns="http://www.w3.org/2000/svg">
<path d="M15.9996 36.3835C7.17762 36.3835 0 29.2059 0 20.3831C0 14.7367 2.88664 9.61705 7.72269 6.68912C8.75931 6.06149 10.1063 6.39327 10.7332 7.42837C11.36 8.46346 11.0283 9.81122 9.99393 10.4389C6.48119 12.5656 4.38424 16.284 4.38424 20.3831C4.38424 26.7886 9.59488 31.9992 16.0004 31.9992C22.4059 31.9992 27.6158 26.7886 27.6158 20.3831C27.6158 16.2167 25.3652 12.3447 21.7393 10.2806C20.6866 9.68126 20.3204 8.34344 20.919 7.29153C21.5183 6.24038 22.8562 5.87343 23.9081 6.47201C28.9001 9.31432 32 14.6457 32 20.3839C31.9992 29.2059 24.8231 36.3835 15.9996 36.3835ZM15.833 20.1645C14.6228 20.1645 13.1573 19.1829 13.1573 17.9727V2.19174C13.1573 0.981581 14.6228 0 15.833 0C17.0431 0 18.5086 0.981581 18.5086 2.19174V17.9727C18.5086 19.1829 17.0431 20.1645 15.833 20.1645Z" fill="black"/>
</svg>
