<svg width="37" height="38" viewBox="0 0 37 38" fill="none" xmlns="http://www.w3.org/2000/svg">
<path d="M35.2406 17.4811L30.4126 14.6795C35.0643 10.7149 30.395 3.31442 24.8093 5.83412L23.2764 6.48607L23.0826 4.79452C22.9064 2.89153 21.9196 1.53477 20.6157 0.741856C17.726 -0.937356 13.3209 0.213247 12.6161 4.40687L7.77054 1.62287C6.07899 0.636134 3.92932 1.2176 2.96021 2.90915L1.19818 5.95746C0.704811 6.80323 1.00436 7.87807 1.85013 8.37143L15.5763 16.3006L18.2194 11.7193L21.2677 13.4813L18.6246 18.0626L32.3508 25.9917C33.1966 26.4322 34.2891 26.1855 34.7648 25.3398L36.5268 22.2915C37.4959 20.5999 36.9321 18.4502 35.2406 17.4811ZM18.2722 7.04991C16.7393 7.49042 15.5058 5.85174 16.2811 4.49497C16.7393 3.6492 17.8493 3.36728 18.6951 3.84302C20.0519 4.63594 19.7876 6.67989 18.2722 7.04991ZM27.4171 12.336C25.9018 12.7765 24.6684 11.1378 25.4437 9.78106C25.9194 8.93528 27.0119 8.65336 27.84 9.12911C29.1968 9.92202 28.9325 11.966 27.4171 12.336ZM33.2495 27.9828C33.9719 27.9828 34.6591 27.7361 35.2406 27.3132V33.4803C35.2406 35.4362 33.6723 37.0044 31.7165 37.0044H3.52406C1.58582 37.0044 0 35.4362 0 33.4803V17.6221H14.3605L15.8582 18.5031V33.4803H19.3823V20.5294L31.4874 27.5071C32.016 27.8242 32.5975 27.9828 33.2495 27.9828Z" fill="black"/>
</svg>
