<svg width="122" height="123" viewBox="0 0 122 123" fill="none" xmlns="http://www.w3.org/2000/svg">
<path d="M57.1189 68.4906L90.7695 51.2185L90.8014 51.2085L99.5896 46.7058C100.42 46.2765 101.464 46.566 101.922 47.3548C105.384 53.2752 107.515 59.7148 108.271 66.2942C109.028 72.8236 108.431 79.4929 106.45 85.9325C106.428 86.0323 106.396 86.1222 106.364 86.222C102.125 99.6403 92.5165 110.193 80.3622 116.423C68.2186 122.653 53.5504 124.56 39.2231 120.666C39.1165 120.646 39.01 120.616 38.9142 120.577C24.5975 116.603 13.338 107.597 6.69098 96.2059C0.0120006 84.7743 -2.01193 70.9766 2.19572 57.4884V57.4784C6.40337 43.9902 16.0543 33.3873 28.2406 27.1374C40.4268 20.8875 55.1589 18.9905 69.5395 22.9342C70.4556 23.1838 70.9775 24.0723 70.7112 24.931L57.1189 68.4906Z" fill="#FB8F2D"/>
<path d="M85.7312 69.0692C84.8364 68.2406 83.6114 67.7214 82.2586 67.7214C80.9057 67.7214 79.6701 68.2406 78.7859 69.0692C77.8911 69.9079 77.3479 71.056 77.3479 72.324C77.3479 73.5919 77.9018 74.7501 78.7859 75.5787C79.6701 76.4174 80.9057 76.9265 82.2586 76.9265C83.6114 76.9265 84.8471 76.4074 85.7312 75.5787C86.626 74.7501 87.1693 73.5919 87.1693 72.324C87.1586 71.056 86.6154 69.9079 85.7312 69.0692Z" fill="black"/>
<path d="M93.5604 53.594L55.2015 73.2822C54.9885 73.392 54.7435 73.4619 54.5091 73.4919H54.4878H54.4665H54.4346H54.4133H54.392H54.3706H54.3493H54.328H54.3067H54.2854H54.2641H54.2428H54.2215H54.2002H54.1789H54.1576H54.115C54.0085 73.4819 53.9019 73.4619 53.7954 73.432C52.8154 73.1624 52.2508 72.2139 52.5385 71.2854L64.8312 31.929C53.7954 29.3631 42.6105 30.9805 33.2898 35.7728C23.4577 40.8146 15.6815 49.3708 12.2941 60.2433C8.89604 71.1257 10.5365 82.2577 15.9052 91.4828C21.2846 100.698 30.4137 107.986 42.014 111.161C53.625 114.346 65.5129 112.808 75.345 107.777C85.1771 102.735 92.9532 94.1785 96.3407 83.306C97.9705 78.0845 98.4605 72.6532 97.8533 67.3418C97.2887 62.5895 95.8506 57.937 93.5604 53.594Z" fill="#FFE278"/>
<path d="M93.9014 53.2854C96.2556 57.7083 97.7256 62.4606 98.2795 67.2928C98.8973 72.6542 98.4073 78.1253 96.7562 83.4068C93.3262 94.399 85.4648 103.055 75.5262 108.147C65.5983 113.239 53.5931 114.786 41.8756 111.571C30.1474 108.357 20.9119 100.988 15.4792 91.6734C10.0466 82.3685 8.39548 71.1166 11.8255 60.1344C15.2555 49.1421 23.1169 40.4861 33.0555 35.3943C42.5254 30.5421 53.8701 28.9048 65.055 31.5505L66.9085 25.6001C53.966 22.4851 40.8317 24.3521 29.8918 29.9531C18.4725 35.8236 9.4394 45.7576 5.49805 58.3772C1.55671 71.0168 3.45281 83.9459 9.70571 94.6486C15.9586 105.341 26.5576 113.808 40.0221 117.502C53.5079 121.196 67.292 119.419 78.7112 113.568C90.1198 107.718 99.153 97.7736 103.094 85.154C104.99 79.0938 105.555 72.7939 104.841 66.6239C104.192 60.983 102.466 55.4519 99.6962 50.3102L93.9014 53.2854Z" fill="#FF9F34"/>
<path d="M89.4052 0.060785C96.4676 1.99766 102.784 5.16255 108.174 9.22599C113.778 13.4492 118.379 18.6508 121.788 24.4714C122.246 25.2501 121.937 26.2285 121.096 26.6578L74.9926 50.3097C74.1617 50.739 73.1178 50.4494 72.6598 49.6607C72.4361 49.2713 72.3935 48.8321 72.5213 48.4427L87.2854 1.169C87.5304 0.310382 88.4891 -0.178828 89.4052 0.060785Z" fill="#FB8F2D"/>
<path d="M111.829 28.3754C108.771 24.2121 105.064 20.4582 100.761 17.2733C96.745 14.2981 92.2284 11.8121 87.2857 9.94513L75.7493 46.8755L111.829 28.3754Z" fill="#FFE278"/>
<path d="M88.6918 8.09824C93.7303 9.96522 98.3321 12.4812 102.412 15.5063C106.779 18.7411 110.54 22.5749 113.618 26.818L117.922 24.6116C114.832 19.7295 110.817 15.3465 106.023 11.7324C101.389 8.23801 96.0312 5.46249 90.0872 3.62546L88.6918 8.09824Z" fill="#FF9F34"/>
<path d="M82.2472 64.8162C84.4629 64.8162 86.4655 65.6548 87.9142 67.0126C89.363 68.3704 90.2577 70.2474 90.2577 72.324C90.2577 74.4007 89.363 76.2777 87.9142 77.6355C86.4655 78.9933 84.4629 79.8319 82.2472 79.8319C80.0316 79.8319 78.0289 78.9933 76.5802 77.6355C75.1315 76.2777 74.2367 74.4007 74.2367 72.324C74.2367 70.2474 75.1315 68.3704 76.5802 67.0126C78.0289 65.6648 80.0422 64.8162 82.2472 64.8162Z" fill="#D83636"/>
<path d="M28.5373 70.2674C32.1058 70.2674 35.0032 72.983 35.0032 76.3276C35.0032 79.6722 32.1058 82.3878 28.5373 82.3878C24.9688 82.3878 22.0713 79.6722 22.0713 76.3276C22.0713 72.983 24.9688 70.2674 28.5373 70.2674Z" fill="#D83636"/>
<path d="M35.1325 50.26L43.356 39.1379L51.9311 50.5894L35.1325 50.26Z" fill="#F2433B"/>
<path d="M42.1408 101.018C41.2992 101.158 40.5003 100.639 40.3512 99.8499C40.202 99.0612 40.756 98.3124 41.5975 98.1726C43.206 97.903 44.5908 97.8032 45.8904 98.0827C47.2965 98.3823 48.5108 99.0911 49.6293 100.409C49.6719 100.459 49.7145 100.499 49.7571 100.539C50.1193 100.858 50.7158 100.888 51.3443 100.758C52.1965 100.589 53.0487 100.149 53.6878 99.6802C53.8689 99.5504 54.0287 99.4106 54.1459 99.2908C56.4148 97.0544 59.3016 98.3323 61.709 99.4106C62.5079 99.77 62.7742 100.928 62.9873 100.499C62.9979 100.469 63.0192 100.439 63.0299 100.409C63.2642 99.7401 63.9886 99.3108 64.7449 99.4306C65.5864 99.5604 66.1617 100.299 66.0232 101.098C65.938 101.617 65.8101 101.857 65.6184 102.026C64.4999 103.883 62.6038 103.035 60.3881 102.046C58.8968 101.377 57.1072 100.589 56.3829 101.308C56.1592 101.537 55.8929 101.757 55.6052 101.966C54.6465 102.675 53.3257 103.344 51.9941 103.614C50.4389 103.933 48.8517 103.754 47.616 102.655C47.4669 102.526 47.3284 102.386 47.2006 102.226C46.5615 101.467 45.9117 101.078 45.1873 100.918C44.3777 100.728 43.3658 100.808 42.1408 101.018ZM44.4417 77.4361C44.3564 76.6374 44.9636 75.9285 45.8158 75.8387C46.668 75.7588 47.4243 76.3279 47.5202 77.1266C47.8397 79.8722 47.5308 82.2982 46.6041 84.3849C45.656 86.5214 44.0795 88.2786 41.8638 89.6464C41.1501 90.0857 40.1914 89.9059 39.7227 89.237C39.254 88.5681 39.4457 87.6696 40.1594 87.2303C41.8425 86.182 43.0462 84.8641 43.7493 83.2667C44.463 81.6293 44.6973 79.6825 44.4417 77.4361ZM32.0317 62.7897C31.1902 62.9295 30.3913 62.4103 30.2315 61.6316C30.0824 60.8429 30.6363 60.0941 31.4778 59.9443C32.3726 59.7846 33.2674 59.515 34.0983 59.2554C36.8679 58.3968 39.0835 57.7179 41.5975 60.2538C42.2792 60.9427 43.3764 60.9727 44.6014 60.9926C45.5282 61.0126 46.5188 61.0326 47.5734 61.2522C48.4043 61.4219 48.9369 62.1907 48.7558 62.9794C48.5747 63.7582 47.7545 64.2574 46.913 64.0876C46.1034 63.9179 45.2938 63.9079 44.5375 63.888C42.6095 63.848 40.8944 63.8081 39.3286 62.2306C38.1675 61.0525 36.7933 61.4818 35.0676 62.011C34.1728 62.2905 33.1928 62.59 32.0317 62.7897Z" fill="#75AA00"/>
<path d="M59.8348 92.4519L68.4525 82.7675L75.9943 92.5517L59.8348 92.4519Z" fill="#F2433B"/>
<path d="M94.1252 18.4711C97.6937 18.4711 100.591 21.1867 100.591 24.5313C100.591 27.8759 97.6937 30.5915 94.1252 30.5915C90.5567 30.5915 87.6593 27.8759 87.6593 24.5313C87.6593 21.1867 90.5567 18.4711 94.1252 18.4711Z" fill="#D83636"/>
<path d="M82.2478 70.1876C82.8763 70.1876 83.4409 70.4272 83.8563 70.8066C84.2718 71.196 84.5168 71.7251 84.5168 72.3142C84.5168 72.9032 84.2611 73.4324 83.8563 73.8217C83.4409 74.2111 82.8763 74.4407 82.2478 74.4407C81.6194 74.4407 81.0548 74.2011 80.6393 73.8217C80.2239 73.4324 79.9789 72.9032 79.9789 72.3142C79.9789 71.7251 80.2346 71.196 80.6393 70.8066C81.0441 70.4272 81.6194 70.1876 82.2478 70.1876Z" fill="white"/>
<path d="M28.5385 74.1914C29.167 74.1914 29.7315 74.431 30.147 74.8104C30.5624 75.1998 30.8074 75.7289 30.8074 76.318C30.8074 76.907 30.5518 77.4362 30.147 77.8255C29.7315 78.2149 29.167 78.4445 28.5385 78.4445C27.91 78.4445 27.3454 78.2049 26.93 77.8255C26.5145 77.4362 26.2695 76.907 26.2695 76.318C26.2695 75.7289 26.5252 75.1998 26.93 74.8104C27.3348 74.431 27.91 74.1914 28.5385 74.1914Z" fill="white"/>
</svg>
