<svg width="32" height="32" viewBox="0 0 32 32" fill="none" xmlns="http://www.w3.org/2000/svg">
<path d="M6.38096 6.66667H24.3002C26.1204 6.66667 27.4056 8.44986 26.83 10.1766L24.6078 16.8433C24.2448 17.9322 23.2258 18.6667 22.078 18.6667H8.09525M6.38096 6.66667L6.3271 6.28954C6.13942 4.97581 5.0143 4 3.68723 4H2.66669M6.38096 6.66667L8.09525 18.6667M8.09525 18.6667L8.33961 20.3771C8.52728 21.6909 9.65241 22.6667 10.9795 22.6667H22.6667M22.6667 22.6667C21.1939 22.6667 20 23.8606 20 25.3333C20 26.8061 21.1939 28 22.6667 28C24.1394 28 25.3334 26.8061 25.3334 25.3333C25.3334 23.8606 24.1394 22.6667 22.6667 22.6667ZM14.6667 25.3333C14.6667 26.8061 13.4728 28 12 28C10.5273 28 9.33335 26.8061 9.33335 25.3333C9.33335 23.8606 10.5273 22.6667 12 22.6667C13.4728 22.6667 14.6667 23.8606 14.6667 25.3333Z" stroke="#C9C5C4" stroke-width="2.18293" stroke-linecap="round" stroke-linejoin="round"/>
</svg>
