<svg width="48" height="43" viewBox="0 0 48 43" fill="none" xmlns="http://www.w3.org/2000/svg">
<path d="M36.4994 14.4501L24.4682 43L0.479784 32.2309L-3.8903e-06 9.85588L36.4994 14.4501Z" fill="#E0B76E"/>
<path d="M23.5462 -2.86605e-06L-3.8903e-06 9.85588L23.9884 20.626L24.4682 43L47.9769 31.3962L47.4971 9.02113L23.5462 -2.86605e-06Z" fill="#F4CE8F"/>
<path d="M23.9884 20.626L24.4682 43L47.9769 31.3962L47.4971 9.02113L23.9884 20.626Z" fill="#F2CA7F"/>
<path d="M15.8485 39.1312L15.3687 16.7562L25.0783 11.9629L25.0796 11.9629L17.0454 12.1041L17.0184 8.94642L7.94721 13.4238L8.42534 35.7214" fill="#8CC1EA"/>
<path d="M15.8485 39.1312L15.3687 16.7562L7.94721 13.4238L8.42534 35.7214" fill="#79B1D6"/>
<path d="M29.7431 2.33409L21.7983 6.59148L21.7971 6.5915L29.8314 6.4503L29.8584 9.60793L38.2704 5.54591" fill="#8CC1EA"/>
<path d="M36.4923 23.5703L32.8973 21.5713L29.3501 27.0863L32.0204 25.7717L32.2184 35.0057L34.0765 34.0882L33.8786 24.8571L36.4923 23.5703Z" fill="#898686"/>
<path d="M36.1462 29.6565L39.7412 31.6554L43.2885 26.1405L40.6181 27.455L40.4201 18.2211L38.5619 19.1386L38.7599 28.3699L36.1462 29.6565Z" fill="#898686"/>
</svg>
