<svg width="13" height="13" viewBox="0 0 13 13" fill="none" xmlns="http://www.w3.org/2000/svg">
<path d="M8.81701 12.7489C10.1056 13.4542 11.2389 12.5993 10.9924 11.1033L10.5499 8.41723L12.4244 6.51492C13.4669 5.45693 13.0362 4.07065 11.5934 3.85239L9.003 3.46049L7.85025 1.02867C7.20453 -0.333517 5.80252 -0.348168 5.15559 1.01658L3.9971 3.46049L1.40666 3.85239C-0.0340294 4.07034 -0.468231 5.45544 0.575735 6.51492L2.4502 8.41723L2.0077 11.1033C1.7616 12.5972 2.89268 13.4552 4.18309 12.7489L6.50005 11.4807L8.81701 12.7489Z" fill="#FFBA00"/>
<mask id="mask0_22_646" style="mask-type:luminance" maskUnits="userSpaceOnUse" x="0" y="0" width="13" height="13">
<path d="M8.81701 12.7489C10.1056 13.4542 11.2389 12.5993 10.9924 11.1033L10.5499 8.41723L12.4244 6.51492C13.4669 5.45693 13.0362 4.07065 11.5934 3.85239L9.003 3.46049L7.85025 1.02867C7.20453 -0.333517 5.80252 -0.348168 5.15559 1.01658L3.9971 3.46049L1.40666 3.85239C-0.0340294 4.07034 -0.468231 5.45544 0.575735 6.51492L2.4502 8.41723L2.0077 11.1033C1.7616 12.5972 2.89268 13.4552 4.18309 12.7489L6.50005 11.4807L8.81701 12.7489Z" fill="white"/>
</mask>
<g mask="url(#mask0_22_646)">
</g>
</svg>
