<svg width="125" height="112" viewBox="0 0 125 112" fill="none" xmlns="http://www.w3.org/2000/svg">
<path d="M95.0681 37.6374L63.7311 112L1.24968 83.9503L9.50276e-07 25.6711L95.0681 37.6374Z" fill="#E0B76E"/>
<path d="M61.3295 7.75812e-07L9.50276e-07 25.6711L62.4815 53.7236L63.7311 112L124.963 81.7761L123.713 23.4969L61.3295 7.75812e-07Z" fill="#F4CE8F"/>
<path d="M62.4815 53.7236L63.7311 112L124.963 81.7761L123.713 23.4969L62.4815 53.7236Z" fill="#F2CA7F"/>
<path d="M41.2798 101.923L40.0301 43.644L65.3203 31.1591L65.3236 31.1591L44.3973 31.5268L44.327 23.3023L20.6997 34.9644L21.9451 93.0418" fill="#8CC1EA"/>
<path d="M41.2798 101.923L40.0301 43.644L20.6997 34.9644L21.9451 93.0418" fill="#79B1D6"/>
<path d="M77.4704 6.07948L56.7771 17.1685L56.7738 17.1686L77.7003 16.8008L77.7706 25.0253L99.6812 14.4452" fill="#8CC1EA"/>
<path d="M95.0498 61.3925L85.686 56.1858L76.4467 70.5502L83.4018 67.1264L83.9176 91.1775L88.7575 88.7878L88.2419 64.744L95.0498 61.3925Z" fill="#898686"/>
<path d="M94.1483 77.2448L103.512 82.4514L112.751 68.087L105.796 71.5108L105.28 47.4597L100.44 49.8494L100.956 73.8936L94.1483 77.2448Z" fill="#898686"/>
</svg>
